<?xml version="1.0" encoding="UTF-8" standalone="no"?>
<!-- Created with Inkscape (http://www.inkscape.org/) -->

<svg
   xmlns:dc="http://purl.org/dc/elements/1.1/"
   xmlns:cc="http://creativecommons.org/ns#"
   xmlns:rdf="http://www.w3.org/1999/02/22-rdf-syntax-ns#"
   xmlns:svg="http://www.w3.org/2000/svg"
   xmlns="http://www.w3.org/2000/svg"
   xmlns:xlink="http://www.w3.org/1999/xlink"
   xmlns:sodipodi="http://sodipodi.sourceforge.net/DTD/sodipodi-0.dtd"
   xmlns:inkscape="http://www.inkscape.org/namespaces/inkscape"
   width="210mm"
   height="297mm"
   viewBox="0 0 210 297"
   version="1.1"
   id="svg8"
   sodipodi:docname="cugler-logo.svg"
   inkscape:version="0.92.4 (33fec40, 2019-01-16)">
  <defs
     id="defs2">
    <linearGradient
       inkscape:collect="always"
       id="linearGradient10223">
      <stop
         style="stop-color:#ff5555;stop-opacity:1;"
         offset="0"
         id="stop10219" />
      <stop
         style="stop-color:#ff5555;stop-opacity:0;"
         offset="1"
         id="stop10221" />
    </linearGradient>
    <linearGradient
       inkscape:collect="always"
       id="linearGradient10215">
      <stop
         style="stop-color:#0b96ff;stop-opacity:1;"
         offset="0"
         id="stop10211" />
      <stop
         style="stop-color:#0b96ff;stop-opacity:0;"
         offset="1"
         id="stop10213" />
    </linearGradient>
    <inkscape:path-effect
       effect="bspline"
       id="path-effect10116"
       is_visible="true"
       weight="33.333333"
       steps="2"
       helper_size="0"
       apply_no_weight="true"
       apply_with_weight="true"
       only_selected="false" />
    <inkscape:path-effect
       effect="bspline"
       id="path-effect10112"
       is_visible="true"
       weight="33.333333"
       steps="2"
       helper_size="0"
       apply_no_weight="true"
       apply_with_weight="true"
       only_selected="false" />
    <inkscape:path-effect
       effect="bspline"
       id="path-effect1191"
       is_visible="true"
       weight="33.333333"
       steps="2"
       helper_size="0"
       apply_no_weight="true"
       apply_with_weight="true"
       only_selected="false" />
    <inkscape:path-effect
       effect="bspline"
       id="path-effect1186"
       is_visible="true"
       weight="33.333333"
       steps="2"
       helper_size="0"
       apply_no_weight="true"
       apply_with_weight="true"
       only_selected="false" />
    <inkscape:path-effect
       effect="bspline"
       id="path-effect998"
       is_visible="true"
       weight="33.333333"
       steps="2"
       helper_size="0"
       apply_no_weight="true"
       apply_with_weight="true"
       only_selected="false" />
    <inkscape:path-effect
       effect="bspline"
       id="path-effect949"
       is_visible="true"
       weight="33.333333"
       steps="2"
       helper_size="0"
       apply_no_weight="true"
       apply_with_weight="true"
       only_selected="false" />
    <inkscape:path-effect
       effect="bspline"
       id="path-effect945"
       is_visible="true"
       weight="33.333333"
       steps="2"
       helper_size="0"
       apply_no_weight="true"
       apply_with_weight="true"
       only_selected="false" />
    <inkscape:path-effect
       effect="bspline"
       id="path-effect874"
       is_visible="true"
       weight="33.333333"
       steps="2"
       helper_size="0"
       apply_no_weight="true"
       apply_with_weight="true"
       only_selected="false" />
    <linearGradient
       inkscape:collect="always"
       xlink:href="#linearGradient10215"
       id="linearGradient10217"
       x1="-407.89233"
       y1="16.395657"
       x2="-668.25299"
       y2="-96.316849"
       gradientUnits="userSpaceOnUse" />
    <radialGradient
       inkscape:collect="always"
       xlink:href="#linearGradient10223"
       id="radialGradient10227"
       cx="-488.3591"
       cy="9.0634413"
       fx="-488.3591"
       fy="9.0634413"
       r="84.842229"
       gradientTransform="matrix(1.6557685,0.58980563,-1.2790441,3.5906759,340.90566,251.85346)"
       gradientUnits="userSpaceOnUse" />
  </defs>
  <sodipodi:namedview
     id="base"
     pagecolor="#ffffff"
     bordercolor="#666666"
     borderopacity="1.0"
     inkscape:pageopacity="0.0"
     inkscape:pageshadow="2"
     inkscape:zoom="0.35355339"
     inkscape:cx="125.75981"
     inkscape:cy="419.48994"
     inkscape:document-units="mm"
     inkscape:current-layer="layer1"
     showgrid="false"
     inkscape:snap-bbox="true"
     inkscape:snap-smooth-nodes="true"
     inkscape:window-width="815"
     inkscape:window-height="993"
     inkscape:window-x="1731"
     inkscape:window-y="20"
     inkscape:window-maximized="0" />
  <metadata
     id="metadata5">
    <rdf:RDF>
      <cc:Work
         rdf:about="">
        <dc:format>image/svg+xml</dc:format>
        <dc:type
           rdf:resource="http://purl.org/dc/dcmitype/StillImage" />
        <dc:title />
      </cc:Work>
    </rdf:RDF>
  </metadata>
  <g
     inkscape:label="Layer 1"
     inkscape:groupmode="layer"
     id="layer1">
    <g
       id="g1004" />
    <g
       id="g46"
       transform="matrix(0.86564342,0,0,0.86138529,564.76956,156)">
      <path
         inkscape:connector-curvature="0"
         id="path7829"
         d="m -522.77583,158.80957 c -5.41017,-0.61376 -10.7992,-2.06788 -13.32649,-3.59588 -3.83132,-2.3164 -4.94535,-4.6274 -4.87726,-10.11769 0.0727,-5.86081 2.12787,-11.73864 8.75019,-25.02567 l 5.35194,-10.73816 2.1831,0.27 c 9.50771,1.17594 17.33649,0.70469 23.02793,-1.38615 3.96705,-1.45735 7.97549,-5.5137 9.51517,-9.628848 1.94266,-5.19223 2.77129,-12.00069 3.09154,-25.40173 l 0.30216,-12.643887 -1.53102,0.33386 c -10.57587,2.30621 -24.42349,2.45797 -34.18007,0.37458 -30.94267,-6.6074 -55.8697,-30.75143 -65.83772,-63.7696704 -3.02438,-10.0179396 -3.64271,-14.9232996 -3.63808,-28.8613996 0.004,-11.43602 0.14873,-13.68208 1.2292,-19.05 1.80875,-8.98588 4.9362,-18.02082 9.09559,-26.276368 12.78151,-25.368787 35.292,-42.806567 61.51927,-47.656007 6.86678,-1.26968 21.69051,-1.24982 28.14493,0.0377 13.22046,2.63719 25.38926,8.20744 36.02309,16.48951 5.33339,4.15387 14.07987,13.271946 17.41929,18.159348 l 2.53979,3.717131 -2.44211,13.927886 c -6.70696,38.25114 -7.44168,44.6169 -7.44015,64.4632996 0.002,26.2085104 1.40125,32.8982204 11.90618,56.9236104 8.4214,19.26025 10.63782,27.330947 10.67069,38.855547 0.0506,17.759468 -6.39757,33.373358 -18.66723,45.201338 -11.90383,11.47532 -31.66028,20.73206 -52.10702,24.41432 -4.53934,0.81749 -22.39346,1.47447 -26.72291,0.98333 z"
         style="opacity:0.01000001;fill:#0000ff;fill-opacity:1;stroke:none;stroke-width:0;stroke-miterlimit:4;stroke-dasharray:none;stroke-opacity:1" />
      <path
         inkscape:connector-curvature="0"
         id="path7831"
         d="m -524.36333,158.6297 c -5.95939,-0.8601 -8.92929,-1.71833 -11.66217,-3.3701 -3.91462,-2.36601 -5.02259,-4.6391 -4.95408,-10.1636 0.0727,-5.86081 2.12787,-11.73864 8.75019,-25.02567 l 5.35194,-10.73816 2.1831,0.27 c 9.50771,1.17594 17.33649,0.70469 23.02793,-1.38615 3.96705,-1.45735 7.97549,-5.5137 9.51517,-9.628848 1.94266,-5.19223 2.77129,-12.00069 3.09154,-25.40173 l 0.30216,-12.643887 -1.53102,0.3334 c -31.94692,6.9567 -63.80327,-5.19443 -84.40648,-32.19562 -8.53903,-11.19067 -14.4866,-24.5365004 -17.80463,-39.95208 -1.32847,-6.17203 -1.42452,-7.49968 -1.4356,-19.84375 -0.0106,-11.76886 0.12372,-13.90091 1.21655,-19.31458 6.06507,-30.045596 24.34037,-54.722855 49.56998,-66.934635 6.74453,-3.26453 14.12071,-5.71681 21.04837,-6.99774 6.86678,-1.26968 21.69051,-1.24982 28.14493,0.0377 13.22046,2.63719 25.38926,8.20744 36.02309,16.48951 5.33339,4.15387 14.07987,13.271946 17.41929,18.159348 l 2.53979,3.717131 -2.44211,13.927886 c -6.70696,38.25114 -7.44168,44.6169 -7.44015,64.4632996 0.002,26.2085104 1.40125,32.8982204 11.90618,56.9236104 8.43315,19.28711 10.65998,27.389107 10.67942,38.855547 0.03,17.737698 -6.41765,33.384308 -18.59433,45.122648 -12.01637,11.58381 -31.61407,20.78199 -52.18865,24.49473 -5.34868,0.9652 -23.59723,1.48199 -28.31041,0.80174 z"
         style="opacity:0.01000001;fill:#0000ff;fill-opacity:1;stroke:none;stroke-width:0;stroke-miterlimit:4;stroke-dasharray:none;stroke-opacity:1" />
      <path
         inkscape:connector-curvature="0"
         id="path7833"
         d="m -524.36333,158.59491 c -5.7301,-0.75848 -8.89758,-1.66436 -11.66217,-3.33531 -3.91462,-2.36601 -5.02259,-4.6391 -4.95408,-10.1636 0.0727,-5.86081 2.12787,-11.73864 8.75019,-25.02567 l 5.35194,-10.73816 2.1831,0.27 c 9.50771,1.17594 17.33649,0.70469 23.02793,-1.38615 3.96705,-1.45735 7.97549,-5.5137 9.51517,-9.628848 1.94266,-5.19223 2.77129,-12.00069 3.09154,-25.40173 l 0.30216,-12.643887 -1.53102,0.3334 c -22.07743,4.80754 -44.23366,0.64837 -62.76184,-11.78169 -21.93629,-14.71643 -36.29411,-38.25644 -40.40063,-66.23773 -1.32972,-9.06059 -0.83349,-25.91867 1.01925,-34.6268 5.3644,-25.213308 19.52064,-46.678853 39.75804,-60.286355 8.19629,-5.51114 20.38177,-10.41731 30.57337,-12.30959 7.42919,-1.37938 22.22591,-1.23574 29.30065,0.28444 9.7344,2.09167 19.83174,6.1321 27.5659,11.03041 8.56844,5.42669 19.59178,15.835465 24.67907,23.303186 l 2.58148,3.78941 -2.44181,13.927889 c -6.58643,37.56827 -7.49001,45.4454 -7.45525,64.9924596 0.0457,25.7033204 1.49096,32.5403904 11.92098,56.3944504 8.43315,19.28711 10.65998,27.389107 10.67942,38.855547 0.03,17.742958 -6.38328,33.351158 -18.50557,45.037088 -13.17208,12.69793 -34.49536,22.22442 -56.14097,25.08181 -6.1416,0.81074 -19.25184,0.95308 -24.44685,0.26543 z"
         style="opacity:0.01000001;fill:#0000ff;fill-opacity:1;stroke:none;stroke-width:0;stroke-miterlimit:4;stroke-dasharray:none;stroke-opacity:1" />
      <path
         inkscape:connector-curvature="0"
         id="path7835"
         d="m -524.36333,158.59491 c -5.7301,-0.75848 -8.89758,-1.66436 -11.66217,-3.33531 -3.91462,-2.36601 -5.02259,-4.6391 -4.95408,-10.1636 0.0727,-5.86081 2.12787,-11.73864 8.75019,-25.02567 l 5.35194,-10.73816 2.1831,0.26685 c 9.41115,1.15049 17.43164,0.67377 22.98273,-1.36609 4.01444,-1.47519 8.01264,-5.50908 9.56037,-9.645758 1.94266,-5.19223 2.77129,-12.00069 3.09154,-25.40173 l 0.30216,-12.643887 -1.53102,0.3334 c -8.76615,1.9089 -20.60086,2.47422 -28.57578,1.36502 -30.03528,-4.17753 -56.0762,-25.39969 -68.25156,-55.6218804 -4.94853,-12.28351 -7.15148,-24.0975696 -7.12658,-38.2189396 0.0288,-16.30676 2.86123,-29.04651 9.5735,-43.05917 12.71765,-26.549625 35.45893,-44.653485 62.42232,-49.693125 7.52276,-1.40606 22.24849,-1.26935 29.44694,0.27338 11.23375,2.40755 22.70447,7.38549 31.54116,13.68789 5.97485,4.26131 15.12497,13.202412 19.58861,19.14113 l 3.73907,4.974701 -2.46142,14.086024 c -6.64407,38.0221 -7.51281,45.59084 -7.47803,65.1505996 0.0457,25.7033204 1.49096,32.5403904 11.92098,56.3944504 8.43315,19.28711 10.65998,27.389107 10.67942,38.855547 0.0416,24.522488 -11.84796,44.061908 -34.65567,56.953598 -11.24455,6.3558 -26.58829,11.41386 -39.92921,13.16271 -6.20075,0.81285 -19.3095,0.9562 -24.50851,0.26802 z"
         style="opacity:0.01000001;fill:#0000ff;fill-opacity:1;stroke:none;stroke-width:0;stroke-miterlimit:4;stroke-dasharray:none;stroke-opacity:1" />
      <path
         inkscape:connector-curvature="0"
         id="path7837"
         d="m -524.36333,158.59491 c -5.7301,-0.75848 -8.89758,-1.66436 -11.66217,-3.33531 -3.91462,-2.36601 -5.02259,-4.6391 -4.95408,-10.1636 0.0727,-5.86081 2.12787,-11.73864 8.75019,-25.02567 l 5.35194,-10.73816 2.1831,0.26685 c 9.41115,1.15049 17.43164,0.67377 22.98273,-1.36609 4.01444,-1.47519 8.01264,-5.50908 9.56037,-9.645758 1.94266,-5.19223 2.77129,-12.00069 3.09154,-25.40173 l 0.30216,-12.643887 -1.53102,0.33386 c -10.61194,2.31408 -25.18825,2.47317 -34.33935,0.37479 -28.31176,-6.492 -50.82415,-26.10937 -62.40187,-54.3772204 -4.86942,-11.889 -7.2421,-24.3683696 -7.24225,-38.0913196 -1.9e-4,-16.42608 2.85998,-29.36476 9.60305,-43.44168 12.71765,-26.549625 35.45893,-44.653485 62.42232,-49.693125 7.52276,-1.40606 22.24849,-1.26935 29.44694,0.27338 11.23375,2.40755 22.70447,7.38549 31.54116,13.68789 5.97201,4.25929 15.12431,13.201531 19.58266,19.133217 l 3.73312,4.96679 -3.00542,17.533518 c -6.47181,37.75618 -6.94841,41.98131 -6.93221,61.4543496 0.0213,25.5626204 1.59091,33.0231304 11.91259,56.6208304 8.4399,19.29554 10.67131,27.401597 10.70655,38.893747 0.0837,27.301428 -14.52928,48.239658 -42.43693,60.805808 -10.62528,4.7843 -21.37767,7.89752 -32.15661,9.3105 -6.20075,0.81285 -19.3095,0.9562 -24.50851,0.26802 z"
         style="opacity:0.01000001;fill:#ff5555;fill-opacity:1;stroke:none;stroke-width:0;stroke-miterlimit:4;stroke-dasharray:none;stroke-opacity:1" />
      <path
         inkscape:connector-curvature="0"
         id="path7839"
         d="m -524.36333,158.59491 c -5.7301,-0.75848 -8.89758,-1.66436 -11.66217,-3.33531 -3.91462,-2.36601 -5.02259,-4.6391 -4.95408,-10.1636 0.0727,-5.86081 2.12787,-11.73864 8.75019,-25.02567 l 5.35194,-10.73816 2.1831,0.26685 c 9.41115,1.15049 17.43164,0.67377 22.98273,-1.36609 4.01444,-1.47519 8.01264,-5.50908 9.56037,-9.645758 1.94266,-5.19223 2.77129,-12.00069 3.09154,-25.40173 l 0.30216,-12.643887 -1.53102,0.33386 c -10.61194,2.31408 -25.18825,2.47317 -34.33935,0.37479 -20.85813,-4.78286 -37.80602,-16.05482 -51.10292,-33.98835 -15.9767,-21.5477704 -22.21148,-51.44464 -16.57612,-79.48542 5.16213,-25.685968 21.30788,-49.000085 42.80821,-61.814055 8.09307,-4.82339 18.06714,-8.5988 27.25208,-10.31552 7.52276,-1.40606 22.24849,-1.26935 29.44694,0.27338 11.23375,2.40755 22.70447,7.38549 31.54116,13.68789 5.97201,4.25929 15.12431,13.201531 19.58266,19.133217 l 3.73312,4.96679 -3.00542,17.533518 c -6.47181,37.75618 -6.94841,41.98131 -6.93221,61.4543496 0.0213,25.5626204 1.59091,33.0231304 11.91259,56.6208304 8.4399,19.29554 10.67131,27.401597 10.70655,38.893747 0.0837,27.301428 -14.52928,48.239658 -42.43693,60.805808 -10.62528,4.7843 -21.37767,7.89752 -32.15661,9.3105 -6.20075,0.81285 -19.3095,0.9562 -24.50851,0.26802 z"
         style="opacity:0.01000001;fill:#ff5555;fill-opacity:1;stroke:none;stroke-width:0;stroke-miterlimit:4;stroke-dasharray:none;stroke-opacity:1" />
      <path
         inkscape:connector-curvature="0"
         id="path7841"
         d="m -524.36333,158.59491 c -5.7301,-0.75848 -8.89758,-1.66436 -11.66217,-3.33531 -3.91462,-2.36601 -5.02259,-4.6391 -4.95408,-10.1636 0.0727,-5.86081 2.12787,-11.73864 8.75019,-25.02567 l 5.35194,-10.73816 2.1831,0.26685 c 9.41115,1.15049 17.43164,0.67377 22.98273,-1.36609 4.01444,-1.47519 8.01264,-5.50908 9.56037,-9.645758 1.9243,-5.14315 2.75815,-12.00406 3.08726,-25.40213 l 0.31061,-12.644277 -1.53311,0.33426 c -10.6158,2.31452 -25.18952,2.47374 -34.34143,0.37518 -20.85813,-4.78286 -37.80602,-16.05482 -51.10292,-33.98835 -15.98472,-21.5585904 -22.21431,-51.43055 -16.57612,-79.48542 5.69945,-28.359693 24.12416,-52.772275 49.35247,-65.391655 4.71963,-2.36079 14.74922,-5.62422 20.70782,-6.73792 7.52276,-1.40606 22.24849,-1.26935 29.44694,0.27338 11.21683,2.40392 22.64474,7.35977 31.56354,13.68789 5.88825,4.17787 15.03567,13.129387 19.56291,19.14394 l 3.73049,4.956067 -3.00542,17.533518 c -6.47181,37.75618 -6.94841,41.98131 -6.93221,61.4543496 0.0213,25.5697404 1.59515,33.0469404 11.91809,56.6208304 5.33954,12.19361 9.00663,22.70438 10.0618,28.839587 0.95238,5.53755 0.83612,16.21507 -0.23743,21.80685 -4.29638,22.378428 -17.85182,38.377788 -41.56025,49.053118 -10.62528,4.7843 -21.37767,7.89752 -32.15661,9.3105 -6.20075,0.81285 -19.3095,0.9562 -24.50851,0.26802 z"
         style="opacity:0.01000001;fill:#ff5555;fill-opacity:1;stroke:none;stroke-width:0;stroke-miterlimit:4;stroke-dasharray:none;stroke-opacity:1" />
      <path
         sodipodi:nodetypes="sssscsssssssscscsccssssssscsssssssssssccssssssss"
         inkscape:connector-curvature="0"
         id="path7843"
         d="m -524.36333,158.59491 c -5.7301,-0.75848 -8.89758,-1.66436 -11.66217,-3.33531 -3.91462,-2.36601 -5.02259,-4.6391 -4.95408,-10.1636 0.0727,-5.86081 2.12787,-11.73864 8.75019,-25.02567 l 5.36021,-10.83326 2.22858,0.23794 c 1.11067,0.11858 2.28509,0.20558 3.50669,0.3011 1.12125,0.0877 2.28897,0.13954 3.48928,0.18572 1.39206,0.0535 2.82939,0.0909 4.31148,0.032 1.06536,-0.0423 2.18526,-0.0346 3.29039,-0.15006 0.85258,-0.0891 1.74221,-0.20059 2.61654,-0.35721 1.03414,-0.18525 2.08622,-0.36436 3.12162,-0.64026 0.46858,-0.12486 0.9498,-0.25315 1.41721,-0.40315 0.30675,-0.0984 0.59579,-0.22272 0.91267,-0.30375 1.95334,-0.71779 4.19024,-2.01374 5.87536,-3.66589 1.77809,-1.74329 2.97223,-3.87941 3.76687,-6.003278 1.9243,-5.14313 2.90932,-13.10783 3.00392,-25.31413 l 0.0957,-12.350777 -1.04193,0.26263 c -10.49178,2.73621 -24.95978,2.880899 -34.46421,0.64412 -20.80882,-4.897163 -37.96302,-16.427705 -51.33084,-34.30966 -16.06926,-21.4956476 -22.56158,-51.653802 -16.52651,-79.70866 2.89766,-13.470193 8.21791,-26.146932 16.06474,-37.044738 5.69342,-7.907115 12.61278,-14.952227 20.50827,-20.680987 2.44124,-1.7713 4.95705,-3.44843 7.59811,-4.92235 0.98518,-0.54981 1.96758,-1.11492 2.96908,-1.63698 0.78741,-0.41047 1.58508,-0.79494 2.37597,-1.19055 1.24364,-0.62207 2.82675,-1.34023 4.61433,-2.06122 1.84076,-0.74245 3.8977,-1.48872 5.98014,-2.19322 3.56982,-1.20767 7.40204,-2.03811 10.326,-2.55615 2.00091,-0.35451 4.49475,-0.68744 7.23134,-0.91734 2.99285,-0.25143 6.27547,-0.38163 9.5071,-0.33131 4.94208,0.077 9.57364,0.89958 12.77038,1.58469 2.87629,0.61643 5.81051,1.34352 8.67274,2.27676 3.3012,1.07637 6.59229,2.31801 9.70592,3.78966 4.71455,2.22833 9.09784,4.90844 13.09186,7.7423 3.39164,2.40646 8.03342,6.28682 12.04917,10.42072 2.95601,3.042985 5.61949,6.17671 7.50879,8.749349 l 2.93266,3.993372 0.86531,1.514645 -3.12376,17.011249 c -6.95607,37.881 -6.95724,41.97627 -6.92213,61.7189296 0.0464,26.0625504 1.44235,32.3819104 13.09259,59.2666704 6.65057,15.34722 8.44326,21.202897 9.3898,30.671017 1.4605,14.60914 -3.22618,31.697408 -11.83382,43.147728 -2.94992,3.92412 -9.59014,10.37659 -13.85198,13.46031 -13.11354,9.48849 -31.39376,16.5413 -48.78107,18.82058 -6.20075,0.81285 -19.3095,0.9562 -24.50851,0.26802 z"
         style="opacity:1;fill:url(#radialGradient10227);fill-opacity:1;fill-rule:nonzero;stroke:none;stroke-width:0;stroke-linejoin:round;stroke-miterlimit:4;stroke-dasharray:none;stroke-opacity:1" />
      <path
         sodipodi:nodetypes="cssssccsccccccccccccsccccscccc"
         inkscape:connector-curvature="0"
         id="path29-0"
         d="m -513.04562,-175.69182 c -34.28391,8e-5 -67.16342,15.05281 -91.40579,41.84706 -24.24236,26.79425 -37.86177,63.135195 -37.86177,101.027945 0,37.8927596 13.61941,74.2337 37.86177,101.02794 20.91354,23.115007 48.25506,37.491675 77.3809,41.004145 4.636,0.55907 9.31721,0.84291 14.02489,0.84291 1.13438,-0.0522 2.26809,-0.12094 3.40083,-0.20619 4.36408,-0.60817 6.94328,-1.27378 9.29245,-2.39829 1.83073,-0.87635 2.96828,-1.66632 4.26228,-2.96055 1.12447,-1.12467 2.08042,-2.44684 2.89181,-4.04524 0.0209,-0.042 0.0409,-0.0791 0.062,-0.12195 0.0144,-0.0288 0.0281,-0.0589 0.0424,-0.0879 0.0973,-0.19968 0.19242,-0.401828 0.28525,-0.606688 0.0196,-0.0433 0.039,-0.0871 0.0584,-0.13073 0.066,-0.14804 0.13002,-0.29859 0.19378,-0.44961 1.71467,-4.11586 2.67085,-9.87454 3.16157,-18.32807 0.003,-0.0477 0.005,-0.0717 0.008,-0.0724 0.008,-0.002 0.15399,-19.845297 0.15399,-19.845297 -6.20016,1.55027 -12.53796,2.34971 -18.89858,2.38384 -47.80381,-5e-5 -86.55644,-42.30642 -86.55648,-94.49398 2e-5,-25.254557 9.03411,-48.195159 23.81826,-65.147292 15.76672,-18.078793 38.06759,-29.346653 62.73822,-29.346683 28.05512,0.0464 54.11098,15.02036 70.30699,40.029198 l 1.26951,-2.189125 c 0.16899,-0.386414 0.33465,-0.766371 0.52969,-1.20251 2.21613,-4.955654 5.99296,-13.216623 9.44076,-20.250953 3.42532,-6.98847 6.52333,-12.76122 8.44187,-16.1122 l 1.24385,-2.53784 c -24.475,-30.24699 -59.43227,-47.56433 -96.14659,-47.62959 z"
         style="opacity:1;fill:url(#linearGradient10217);fill-opacity:1;stroke:none;stroke-width:0;stroke-miterlimit:4;stroke-dasharray:none;stroke-opacity:1" />
      <text
         transform="matrix(0.80531827,-0.18077283,0.26536772,1.182177,0,0)"
         id="text7871"
         y="-92.367973"
         x="-723.56641"
         style="font-style:normal;font-variant:normal;font-weight:normal;font-stretch:normal;font-size:78.57303619px;line-height:1.25;font-family:Karumbi;-inkscape-font-specification:Karumbi;letter-spacing:0px;word-spacing:0px;fill:#000000;fill-opacity:1;stroke:none;stroke-width:0.40923452"
         xml:space="preserve"><tspan
           style="stroke-width:0.40923452"
           y="-92.367973"
           x="-723.56641"
           id="tspan7869"
           sodipodi:role="line">SERVICES</tspan></text>
    </g>
  </g>
</svg>
